<svg width="32" height="32" viewBox="0 0 32 32" fill="none" xmlns="http://www.w3.org/2000/svg">
<path opacity="0.4" d="M27.1466 16.9733C26.6533 16.9733 26.24 16.5999 26.1866 16.1066C25.8666 13.1733 24.2933 10.5333 21.8666 8.85328C21.4266 8.54661 21.32 7.94661 21.6266 7.50661C21.9333 7.06661 22.5333 6.95994 22.9733 7.26661C25.8666 9.27994 27.7333 12.4266 28.12 15.9066C28.1733 16.4399 27.7866 16.9199 27.2533 16.9733C27.2133 16.9733 27.1866 16.9733 27.1466 16.9733Z" fill="#DD7824"/>
<path opacity="0.4" d="M4.98689 17.0399C4.96022 17.0399 4.92022 17.0399 4.89356 17.0399C4.36022 16.9866 3.97356 16.5066 4.02689 15.9733C4.38689 12.4933 6.22689 9.3466 9.09356 7.31993C9.52022 7.01327 10.1336 7.11993 10.4402 7.5466C10.7469 7.9866 10.6402 8.5866 10.2136 8.89327C7.81356 10.5999 6.25356 13.2399 5.96022 16.1599C5.90689 16.6666 5.48022 17.0399 4.98689 17.0399Z" fill="#DD7824"/>
<path opacity="0.4" d="M21.3196 28.1335C19.6796 28.9201 17.9196 29.3201 16.0796 29.3201C14.1596 29.3201 12.333 28.8935 10.6263 28.0268C10.1463 27.8001 9.95965 27.2135 10.1996 26.7335C10.4263 26.2535 11.013 26.0668 11.493 26.2935C12.333 26.7201 13.2263 27.0135 14.133 27.1868C15.3596 27.4268 16.613 27.4401 17.8396 27.2268C18.7463 27.0668 19.6396 26.7868 20.4663 26.3868C20.9596 26.1601 21.5463 26.3468 21.7596 26.8401C21.9996 27.3201 21.813 27.9068 21.3196 28.1335Z" fill="#DD7824"/>
<path d="M16.0671 2.68002C14.0005 2.68002 12.3071 4.36002 12.3071 6.44002C12.3071 8.52002 13.9871 10.2 16.0671 10.2C18.1471 10.2 19.8271 8.52002 19.8271 6.44002C19.8271 4.36002 18.1471 2.68002 16.0671 2.68002Z" fill="#DD7824"/>
<path d="M6.73412 18.4935C4.66745 18.4935 2.97412 20.1735 2.97412 22.2535C2.97412 24.3335 4.65412 26.0135 6.73412 26.0135C8.81412 26.0135 10.4941 24.3335 10.4941 22.2535C10.4941 20.1735 8.80079 18.4935 6.73412 18.4935Z" fill="#DD7824"/>
<path d="M25.2668 18.4933C23.2002 18.4933 21.5068 20.1733 21.5068 22.2533C21.5068 24.3333 23.1868 26.0133 25.2668 26.0133C27.3468 26.0133 29.0268 24.3333 29.0268 22.2533C29.0268 20.1733 27.3468 18.4933 25.2668 18.4933Z" fill="#DD7824"/>
</svg>
