<svg width="58" height="58" viewBox="0 0 58 58" fill="none" xmlns="http://www.w3.org/2000/svg">
<g filter="url(#filter0_d_161_364)">
<rect x="17" y="17" width="24" height="24" rx="4" fill="#DD7824"/>
<path d="M34.6469 22.3333H23.3535C23.2266 22.3316 23.1005 22.3548 22.9826 22.4018C22.8646 22.4488 22.7571 22.5185 22.6661 22.607C22.5751 22.6955 22.5024 22.8011 22.4522 22.9178C22.402 23.0344 22.3753 23.1597 22.3735 23.2867V34.7133C22.3753 34.8403 22.402 34.9657 22.4522 35.0823C22.5024 35.1989 22.5751 35.3045 22.6661 35.393C22.7571 35.4815 22.8646 35.5513 22.9826 35.5982C23.1005 35.6452 23.2266 35.6684 23.3535 35.6667H34.6469C34.7738 35.6684 34.8999 35.6452 35.0178 35.5982C35.1358 35.5513 35.2433 35.4815 35.3343 35.393C35.4253 35.3045 35.498 35.1989 35.5482 35.0823C35.5984 34.9657 35.6251 34.8403 35.6269 34.7133V23.2867C35.6251 23.1597 35.5984 23.0344 35.5482 22.9178C35.498 22.8011 35.4253 22.6955 35.3343 22.607C35.2433 22.5185 35.1358 22.4488 35.0178 22.4018C34.8999 22.3548 34.7738 22.3316 34.6469 22.3333ZM26.3935 33.4933H24.3935V27.4933H26.3935V33.4933ZM25.3935 26.6533C25.1177 26.6533 24.8532 26.5438 24.6581 26.3487C24.4631 26.1537 24.3535 25.8892 24.3535 25.6133C24.3535 25.3375 24.4631 25.073 24.6581 24.878C24.8532 24.6829 25.1177 24.5733 25.3935 24.5733C25.54 24.5567 25.6883 24.5712 25.8288 24.6159C25.9693 24.6606 26.0987 24.7345 26.2086 24.8327C26.3186 24.9308 26.4066 25.0511 26.4668 25.1857C26.527 25.3202 26.5581 25.4659 26.5581 25.6133C26.5581 25.7607 26.527 25.9065 26.4668 26.041C26.4066 26.1756 26.3186 26.2959 26.2086 26.394C26.0987 26.4922 25.9693 26.5661 25.8288 26.6108C25.6883 26.6554 25.54 26.67 25.3935 26.6533ZM33.6069 33.4933H31.6069V30.2733C31.6069 29.4667 31.3202 28.94 30.5935 28.94C30.3686 28.9417 30.1497 29.0122 29.9661 29.1421C29.7825 29.2721 29.6432 29.4551 29.5669 29.6667C29.5147 29.8234 29.4921 29.9884 29.5002 30.1533V33.4867H27.5002C27.5002 33.4867 27.5002 28.0333 27.5002 27.4867H29.5002V28.3333C29.6819 28.0181 29.9461 27.7584 30.2645 27.5821C30.5829 27.4059 30.9432 27.3199 31.3069 27.3333C32.6402 27.3333 33.6069 28.1933 33.6069 30.04V33.4933Z" fill="white"/>
</g>
<defs>
<filter id="filter0_d_161_364" x="0" y="0" width="58" height="58" filterUnits="userSpaceOnUse" color-interpolation-filters="sRGB">
<feFlood flood-opacity="0" result="BackgroundImageFix"/>
<feColorMatrix in="SourceAlpha" type="matrix" values="0 0 0 0 0 0 0 0 0 0 0 0 0 0 0 0 0 0 127 0" result="hardAlpha"/>
<feOffset/>
<feGaussianBlur stdDeviation="8.5"/>
<feComposite in2="hardAlpha" operator="out"/>
<feColorMatrix type="matrix" values="0 0 0 0 0 0 0 0 0 0 0 0 0 0 0 0 0 0 0.05 0"/>
<feBlend mode="normal" in2="BackgroundImageFix" result="effect1_dropShadow_161_364"/>
<feBlend mode="normal" in="SourceGraphic" in2="effect1_dropShadow_161_364" result="shape"/>
</filter>
</defs>
</svg>
