<svg width="16" height="16" viewBox="0 0 16 16" fill="none" xmlns="http://www.w3.org/2000/svg">
<path d="M11.0997 13.4665V13.6598C10.113 14.2932 8.93302 14.6665 7.66635 14.6665C6.37969 14.6665 5.17969 14.2798 4.17969 13.6198V13.4665C4.17969 11.9132 5.73302 10.6465 7.63969 10.6465C9.55302 10.6465 11.0997 11.9132 11.0997 13.4665Z" fill="#DD7824"/>
<path opacity="0.4" d="M14.0002 8.33333C14.0002 10.5667 12.8468 12.5267 11.1002 13.66V13.4667C11.1002 11.9133 9.5535 10.6466 7.64016 10.6466C5.7335 10.6466 4.18016 11.9133 4.18016 13.4667V13.62C2.46683 12.4867 1.3335 10.5467 1.3335 8.33333C1.3335 4.83333 4.16683 2 7.66683 2C8.54016 2 9.3735 2.17333 10.1335 2.49333C10.0468 2.75999 10.0002 3.04 10.0002 3.33333C10.0002 3.83333 10.1402 4.30666 10.3868 4.70666C10.5202 4.93333 10.6935 5.13998 10.8935 5.31331C11.3602 5.73998 11.9802 6 12.6668 6C12.9602 6 13.2402 5.95332 13.5002 5.85999C13.8202 6.61999 14.0002 7.46 14.0002 8.33333Z" fill="#DD7824"/>
<path d="M14.6467 1.55318C14.1667 1.00652 13.4533 0.666504 12.6667 0.666504C11.92 0.666504 11.24 0.973185 10.7533 1.47319C10.4733 1.75985 10.26 2.1065 10.1333 2.49316C10.0467 2.75983 10 3.03984 10 3.33317C10 3.83317 10.14 4.3065 10.3867 4.7065C10.52 4.93317 10.6933 5.13982 10.8933 5.31315C11.36 5.73982 11.98 5.99984 12.6667 5.99984C12.96 5.99984 13.24 5.95316 13.5 5.85982C14.1133 5.66649 14.6267 5.2465 14.9467 4.7065C15.0867 4.47984 15.1933 4.21983 15.2533 3.95317C15.3067 3.75317 15.3333 3.5465 15.3333 3.33317C15.3333 2.65317 15.0733 2.02652 14.6467 1.55318ZM13.66 3.81982H13.1667V4.33984C13.1667 4.61318 12.94 4.83984 12.6667 4.83984C12.3933 4.83984 12.1667 4.61318 12.1667 4.33984V3.81982H11.6733C11.4 3.81982 11.1733 3.59316 11.1733 3.31982C11.1733 3.04649 11.4 2.81982 11.6733 2.81982H12.1667V2.34652C12.1667 2.07318 12.3933 1.84652 12.6667 1.84652C12.94 1.84652 13.1667 2.07318 13.1667 2.34652V2.81982H13.66C13.9333 2.81982 14.16 3.04649 14.16 3.31982C14.16 3.59316 13.94 3.81982 13.66 3.81982Z" fill="#DD7824"/>
<path d="M7.64042 9.81991C8.67503 9.81991 9.51376 8.98119 9.51376 7.94657C9.51376 6.91196 8.67503 6.07324 7.64042 6.07324C6.60581 6.07324 5.76709 6.91196 5.76709 7.94657C5.76709 8.98119 6.60581 9.81991 7.64042 9.81991Z" fill="#DD7824"/>
</svg>
