<svg width="16" height="16" viewBox="0 0 16 16" fill="none" xmlns="http://www.w3.org/2000/svg">
<path opacity="0.4" d="M13.0267 4.35984L10.98 2.31317C10.3533 1.6865 9.50666 1.33984 8.62 1.33984H5.33333C3.33333 1.33984 2 2.67318 2 4.67318V11.3398C2 13.3398 3.33333 14.6732 5.33333 14.6732H10.6667C12.6667 14.6732 14 13.3398 14 11.3398V6.71983C14 5.82649 13.6467 4.97984 13.0267 4.35984Z" fill="#DD7824"/>
<path d="M6.33362 12.5C6.20695 12.5 6.08029 12.4533 5.98029 12.3533L4.64695 11.02C4.45362 10.8266 4.45362 10.5066 4.64695 10.3133L5.98029 8.97996C6.17362 8.78663 6.49362 8.78663 6.68695 8.97996C6.88028 9.17329 6.88028 9.49329 6.68695 9.68663L5.70695 10.6666L6.68695 11.6466C6.88028 11.84 6.88028 12.16 6.68695 12.3533C6.58695 12.4533 6.46029 12.5 6.33362 12.5Z" fill="#DD7824"/>
<path d="M9.66679 12.5C9.54012 12.5 9.41346 12.4533 9.31346 12.3533C9.12012 12.16 9.12012 11.84 9.31346 11.6466L10.2935 10.6666L9.31346 9.68663C9.12012 9.49329 9.12012 9.17329 9.31346 8.97996C9.50679 8.78663 9.82679 8.78663 10.0201 8.97996L11.3535 10.3133C11.5468 10.5066 11.5468 10.8266 11.3535 11.02L10.0201 12.3533C9.92012 12.4533 9.79346 12.5 9.66679 12.5Z" fill="#DD7824"/>
</svg>
