<svg width="32" height="32" viewBox="0 0 32 32" fill="none" xmlns="http://www.w3.org/2000/svg">
<path d="M17.7331 10.8133L19.4931 14.3333C19.7331 14.8133 20.3731 15.2933 20.9065 15.3733L24.0931 15.9066C26.1331 16.2533 26.6131 17.72 25.1464 19.1866L22.6665 21.6666C22.2531 22.08 22.0131 22.8933 22.1464 23.48L22.8531 26.56C23.4131 28.9866 22.1198 29.9333 19.9731 28.6666L16.9864 26.8933C16.4398 26.5733 15.5598 26.5733 15.0131 26.8933L12.0264 28.6666C9.87978 29.9333 8.58644 28.9866 9.14644 26.56L9.85315 23.48C9.98648 22.9066 9.74646 22.0933 9.33313 21.6666L6.85315 19.1866C5.38648 17.72 5.86645 16.24 7.90645 15.9066L11.0931 15.3733C11.6265 15.28 12.2665 14.8133 12.5065 14.3333L14.2665 10.8133C15.2131 8.90663 16.7864 8.90663 17.7331 10.8133Z" fill="#DD7824"/>
<path opacity="0.4" d="M8 13C7.45333 13 7 12.5467 7 12V2.66666C7 2.11999 7.45333 1.66666 8 1.66666C8.54667 1.66666 9 2.11999 9 2.66666V12C9 12.5467 8.54667 13 8 13Z" fill="#DD7824"/>
<path opacity="0.4" d="M24 13C23.4533 13 23 12.5467 23 12V2.66666C23 2.11999 23.4533 1.66666 24 1.66666C24.5467 1.66666 25 2.11999 25 2.66666V12C25 12.5467 24.5467 13 24 13Z" fill="#DD7824"/>
<path opacity="0.4" d="M16 6.33332C15.4533 6.33332 15 5.87999 15 5.33332V2.66666C15 2.11999 15.4533 1.66666 16 1.66666C16.5467 1.66666 17 2.11999 17 2.66666V5.33332C17 5.87999 16.5467 6.33332 16 6.33332Z" fill="#DD7824"/>
</svg>
