<svg width="58" height="58" viewBox="0 0 58 58" fill="none" xmlns="http://www.w3.org/2000/svg">
<g filter="url(#filter0_d_161_368)">
<rect x="17" y="17" width="24" height="24" rx="4" fill="#DD7824"/>
<path d="M35.6668 24.8667C35.1657 25.0841 34.6358 25.2278 34.0935 25.2934C34.6656 24.9516 35.0943 24.4139 35.3002 23.78C34.7625 24.1001 34.174 24.3255 33.5602 24.4467C33.1499 24.0017 32.6035 23.7055 32.0067 23.6046C31.4099 23.5036 30.7965 23.6036 30.2627 23.8888C29.7289 24.174 29.3048 24.6284 29.057 25.1806C28.8092 25.7328 28.7517 26.3516 28.8935 26.94C27.8064 26.885 26.7431 26.602 25.7726 26.1093C24.8021 25.6165 23.9461 24.9251 23.2602 24.08C23.0196 24.5001 22.8932 24.9759 22.8935 25.46C22.8926 25.9096 23.003 26.3524 23.2147 26.7491C23.4264 27.1457 23.7328 27.4838 24.1068 27.7334C23.6721 27.7215 23.2468 27.6049 22.8668 27.3934V27.4267C22.8701 28.0566 23.0908 28.6661 23.4917 29.152C23.8926 29.6379 24.449 29.9704 25.0668 30.0934C24.829 30.1657 24.5821 30.2039 24.3335 30.2067C24.1614 30.2047 23.9898 30.1891 23.8202 30.16C23.9961 30.7019 24.3366 31.1754 24.7942 31.5148C25.2518 31.8541 25.8039 32.0424 26.3735 32.0534C25.4116 32.8102 24.2241 33.2233 23.0002 33.2267C22.7773 33.2274 22.5547 33.2141 22.3335 33.1867C23.5831 33.9935 25.0394 34.4218 26.5268 34.42C27.5533 34.4307 28.5716 34.2367 29.5222 33.8494C30.4729 33.4621 31.3368 32.8893 32.0636 32.1643C32.7904 31.4394 33.3655 30.5769 33.7552 29.6273C34.1449 28.6776 34.3415 27.6598 34.3335 26.6334C34.3335 26.52 34.3335 26.4 34.3335 26.28C34.8566 25.8899 35.3078 25.4116 35.6668 24.8667Z" fill="white"/>
</g>
<defs>
<filter id="filter0_d_161_368" x="0" y="0" width="58" height="58" filterUnits="userSpaceOnUse" color-interpolation-filters="sRGB">
<feFlood flood-opacity="0" result="BackgroundImageFix"/>
<feColorMatrix in="SourceAlpha" type="matrix" values="0 0 0 0 0 0 0 0 0 0 0 0 0 0 0 0 0 0 127 0" result="hardAlpha"/>
<feOffset/>
<feGaussianBlur stdDeviation="8.5"/>
<feComposite in2="hardAlpha" operator="out"/>
<feColorMatrix type="matrix" values="0 0 0 0 0 0 0 0 0 0 0 0 0 0 0 0 0 0 0.05 0"/>
<feBlend mode="normal" in2="BackgroundImageFix" result="effect1_dropShadow_161_368"/>
<feBlend mode="normal" in="SourceGraphic" in2="effect1_dropShadow_161_368" result="shape"/>
</filter>
</defs>
</svg>
