<svg width="17" height="32" viewBox="0 0 17 32" fill="none" xmlns="http://www.w3.org/2000/svg">
<path opacity="0.4" d="M12.1203 23.0659C10.9535 23.0659 9.87696 22.0126 9.17548 20.1592C9.00879 19.7192 9.05741 19.0926 9.2866 18.7592C9.5158 18.4259 9.84225 18.5326 10.0159 18.9726C10.5229 20.2926 11.2869 21.0526 12.1203 21.0526C13.5719 21.0526 14.7596 18.7859 14.7596 15.9859C14.7596 13.1859 13.5789 10.9192 12.1203 10.9192C11.1341 10.9192 10.2034 11.9326 9.69638 13.5459L7.85585 19.4259C7.16131 21.6526 5.89031 23.0259 4.5429 23.0259C2.51484 23.0259 0.861816 19.8526 0.861816 15.9592C0.861816 12.0659 2.51484 8.89258 4.5429 8.89258C5.70973 8.89258 6.78626 9.9459 7.48775 11.7992C7.65444 12.2392 7.60581 12.8659 7.37662 13.1992C7.14047 13.5326 6.82099 13.4259 6.64736 12.9859C6.14034 11.6659 5.37635 10.9059 4.5429 10.9059C3.09131 10.9059 1.90363 13.1726 1.90363 15.9726C1.90363 18.7726 3.08436 21.0392 4.5429 21.0392C5.52915 21.0392 6.45982 20.0259 6.96684 18.4126L8.80737 12.5326C9.50191 10.3059 10.7729 8.93258 12.1203 8.93258C14.1484 8.93258 15.8014 12.1059 15.8014 15.9992C15.8014 19.8926 14.1484 23.0659 12.1203 23.0659Z" fill="#DD7824"/>
<path d="M4.51457 18.6673C5.28174 18.6673 5.90365 17.4734 5.90365 16.0007C5.90365 14.5279 5.28174 13.334 4.51457 13.334C3.7474 13.334 3.12549 14.5279 3.12549 16.0007C3.12549 17.4734 3.7474 18.6673 4.51457 18.6673Z" fill="#DD7824"/>
<path d="M12.1542 18.6673C12.9214 18.6673 13.5433 17.4734 13.5433 16.0007C13.5433 14.5279 12.9214 13.334 12.1542 13.334C11.3871 13.334 10.7651 14.5279 10.7651 16.0007C10.7651 17.4734 11.3871 18.6673 12.1542 18.6673Z" fill="#DD7824"/>
</svg>
