<svg width="16" height="16" viewBox="0 0 16 16" fill="none" xmlns="http://www.w3.org/2000/svg">
<path d="M12.6003 10.02C11.1269 10.02 9.93359 11.2134 9.93359 12.6867C9.93359 14.16 11.1269 15.3534 12.6003 15.3534C14.0736 15.3534 15.2669 14.16 15.2669 12.6867C15.2669 11.2134 14.0736 10.02 12.6003 10.02ZM13.6669 13.7867C13.5669 13.8867 13.4402 13.9334 13.3136 13.9334C13.1869 13.9334 13.0602 13.8867 12.9602 13.7867L12.6069 13.4334L12.2402 13.8C12.1402 13.9 12.0136 13.9467 11.8869 13.9467C11.7603 13.9467 11.6336 13.9 11.5336 13.8C11.3402 13.6067 11.3402 13.2867 11.5336 13.0934L11.9002 12.7267L11.5469 12.3734C11.3536 12.18 11.3536 11.86 11.5469 11.6667C11.7402 11.4734 12.0602 11.4734 12.2536 11.6667L12.6069 12.02L12.9402 11.6867C13.1336 11.4934 13.4536 11.4934 13.6469 11.6867C13.8402 11.88 13.8402 12.2 13.6469 12.3934L13.3136 12.7267L13.6669 13.08C13.8602 13.2734 13.8602 13.5934 13.6669 13.7867Z" fill="#DD7824"/>
<path d="M14.6668 5.0266V5.99993H1.3335V5.0266C1.3335 3.49993 2.57351 2.2666 4.10018 2.2666H11.9001C13.4268 2.2666 14.6668 3.49993 14.6668 5.0266Z" fill="#DD7824"/>
<path opacity="0.4" d="M1.3335 6V10.9733C1.3335 12.5 2.56684 13.7333 4.09351 13.7333H8.26685C8.65351 13.7333 8.98682 13.4067 8.95349 13.02C8.86016 12 9.18684 10.8933 10.0935 10.0133C10.4668 9.64667 10.9268 9.36667 11.4268 9.20667C12.2602 8.94 13.0668 8.97333 13.7802 9.21333C14.2135 9.36 14.6668 9.04667 14.6668 8.58667V6H1.3335ZM5.3335 11.5H4.00016C3.72683 11.5 3.50016 11.2733 3.50016 11C3.50016 10.7267 3.72683 10.5 4.00016 10.5H5.3335C5.60683 10.5 5.8335 10.7267 5.8335 11C5.8335 11.2733 5.60683 11.5 5.3335 11.5Z" fill="#DD7824"/>
<path d="M5.83333 11C5.83333 11.2733 5.60667 11.5 5.33333 11.5H4C3.72667 11.5 3.5 11.2733 3.5 11C3.5 10.7267 3.72667 10.5 4 10.5H5.33333C5.60667 10.5 5.83333 10.7267 5.83333 11Z" fill="#DD7824"/>
</svg>
